<?xml version="1.0" encoding="utf-8"?>
<svg xmlns="http://www.w3.org/2000/svg" width="456.39365mm" height="415.26984mm" viewBox="0 0 1617.1428 1471.4285" id="svg16667" version="1.1">
  <title id="title17273">court gavel outline</title>
  <path style="opacity: 1; fill-opacity: 1; stroke: none; stroke-width: 23; stroke-linecap: round; stroke-linejoin: round; stroke-miterlimit: 4; stroke-dasharray: none; stroke-opacity: 1; fill: rgb(255, 255, 255);" d="M 596.667 641.429 C 580.967 641.429 568.327 654.059 568.327 669.759 L 568.327 710.239 C 568.327 711.119 568.377 711.989 568.457 712.849 L 539.637 712.849 C 520.707 712.849 513.502 729.879 505.475 747.019 L 482.617 795.829 C 474.59 812.969 497.857 829.999 516.785 829.999 L 1099.88 829.999 C 1118.81 829.999 1143.6 812.169 1134.03 795.829 L 1105.47 747.019 C 1095.91 730.689 1090.24 712.849 1071.31 712.849 L 1042.49 712.849 C 1042.57 711.989 1042.62 711.119 1042.62 710.239 L 1042.62 669.759 C 1042.62 654.059 1029.98 641.429 1014.29 641.429 L 596.667 641.429 Z" id="rect17225"/>
</svg>