<svg width="300" height="236" viewBox="0 0 300 236"  xmlns="http://www.w3.org/2000/svg">
  <defs>
    <linearGradient id="goldGradient" x1="0%" y1="0%" x2="100%" y2="100%">
      <stop offset="0%" style="stop-color:#dfc297; stop-opacity:1" />
      <stop offset="50%" style="stop-color:#bfa27b; stop-opacity:1" />
      <stop offset="100%" style="stop-color:#f8e8d0; stop-opacity:1" />
    </linearGradient>
  </defs>
<path d="M21.1771 195.593C36.8092 168.249 52.4355 141.322 67.7432 114.214C86.403 81.1712 104.787 47.9725 123.313 14.8537C125.424 11.0795 127.531 7.28782 129.908 3.68115C132.647 -0.475376 134.522 -0.412281 137.251 3.84582C147.941 20.5213 158.443 37.3175 169.238 53.9241C187.111 81.4204 205.161 108.802 223.121 136.242C224.289 138.026 225.815 139.645 226.147 142.297C223.701 144.27 220.673 143.965 217.783 143.926C202.663 143.722 187.545 143.35 172.425 143.224C157.269 143.098 142.107 143.372 126.954 143.078C122.473 142.991 119.852 144.715 117.625 148.254C107.425 164.454 97.1392 180.601 86.8364 196.736C83.342 202.209 79.5721 207.518 76.8678 213.45C75.8393 215.706 74.8895 218.047 74.3054 220.448C72.7288 226.926 74.7206 229.586 81.2929 229.787C86.452 229.945 91.6204 229.774 96.782 229.881C98.7345 229.921 101.357 229.909 101.277 232.618C101.197 235.362 98.5387 235.067 96.613 235.068C65.6328 235.081 34.6525 235.054 3.67226 235.032C-0.476219 235.029 -0.771552 233.173 1.11009 229.983C7.79129 218.657 14.3963 207.285 21.1771 195.593ZM156.487 77.0129C146.912 97.1879 136.908 117.148 124.778 137.375C152.159 137.375 177.817 137.375 205.023 137.375C179.571 96.8282 153.67 58.1188 129.761 17.8341C126.333 20.8828 125.705 24.5252 123.847 27.4353C111.74 46.4037 101.805 66.6094 90.4579 86.0173C74.0677 114.051 58.0351 142.298 42.1647 170.63C32.3176 188.209 21.4846 205.238 12.6124 223.36C11.7154 225.192 10.083 226.931 11.006 229.529C19.8547 230.28 28.8624 230.532 37.1281 227.414C53.308 221.311 66.8721 211.193 77.7322 197.635C87.5556 185.372 95.0966 171.597 103.611 158.464C119.386 134.129 135.039 109.749 146.727 83.0742C148.048 80.0584 149.924 77.1756 152.04 74.6478C154.336 71.905 156.355 72.0653 156.487 77.0129Z" fill="url(#goldGradient)"/>
<path d="M187.85 220.529C175.184 209.8 165.026 197.667 159.656 182.044C157.616 176.11 158.038 175.634 164.415 175.666C176.076 175.724 187.739 175.786 199.398 175.626C204 175.563 205.839 177.084 205.844 182C205.854 193.139 204.938 204.309 206.521 215.427C207.598 222.993 212.332 227.744 219.212 229.236C235.567 232.782 249.361 229.974 258.669 212.958C263.433 204.248 266.288 195.043 266.604 184.913C266.988 172.592 267.392 160.273 267.187 147.956C267.104 142.925 269.332 141.042 273.878 140.728C281.071 140.232 288.185 141.216 295.304 141.907C299.239 142.288 299.645 145.375 299.635 148.601C299.584 164.926 299.574 181.252 299.544 197.577C299.533 204.074 299.664 210.576 299.442 217.066C299.257 222.48 298.292 227.757 293.335 231.141C283.586 237.797 272.118 232.738 269.309 220.575C268.794 218.343 268.341 216.096 267.897 214.03C265.933 213.474 265.384 214.726 264.838 215.643C254.333 233.283 238.287 237.614 219.243 234.577C207.671 232.733 197.17 228.352 187.85 220.529Z" fill="url(#goldGradient)"/>
<path d="M224.769 0.627003C239.696 -0.984378 252.53 3.5783 264.399 11.2962C268.335 13.8556 271.106 13.1447 273.719 9.68607C275.521 7.29969 277.376 4.95246 279.174 2.56274C280.191 1.21048 281.227 -0.386813 283.131 0.0842557C285.304 0.62225 285.53 2.65786 285.548 4.53473C285.619 11.8632 285.509 19.1956 285.703 26.5203C285.949 35.8361 286.464 45.1445 286.77 54.4591C286.837 56.5251 287.344 58.8428 285.075 60.4627C281.84 59.3856 281.865 56.3686 281.416 53.9485C278.684 39.2247 272.047 26.5856 261.214 16.3028C251.385 6.97359 227.682 0.489568 213.079 8.70758C206.688 12.3041 202.262 17.5112 198.87 23.7314C193.19 34.1466 188.528 44.9642 186.527 56.7791C186.208 58.6602 186.045 61.1774 183.598 61.4742C181.449 61.7348 180.758 59.4476 179.825 57.9503C177.713 54.5602 175.97 50.9147 173.632 47.696C170.046 42.7589 170.488 38.1108 173.826 33.4241C186.337 15.8628 202.698 4.21433 224.769 0.627003Z" fill="url(#goldGradient)"/>
</svg>
