<?xml version="1.0" encoding="utf-8"?>
<svg xmlns="http://www.w3.org/2000/svg" width="456.39365mm" height="415.26984mm" viewBox="0 0 1617.1428 1471.4285" id="svg16667" version="1.1">
  <title id="title17273">court gavel outline</title>
  <path style="opacity: 1; fill-opacity: 1; stroke: none; stroke-width: 23; stroke-linecap: round; stroke-linejoin: round; stroke-miterlimit: 4; stroke-dasharray: none; stroke-opacity: 1; transform-box: fill-box; transform-origin: 50% 50%; fill: rgb(255, 255, 255);" d="M 522.097 1098.9 C 512.079 1103.64 500.203 1099.39 495.468 1089.37 L 483.258 1063.54 C 478.523 1053.52 482.775 1041.65 492.793 1036.91 L 730.437 924.576 C 740.455 919.841 752.331 924.094 757.066 934.111 L 769.276 959.941 C 774.011 969.958 769.759 981.834 759.741 986.569 L 522.097 1098.9 Z M 498.195 1012.24 L 346.789 691.932 L 553.435 594.25 L 704.842 914.553 L 498.195 1012.24 Z M 692.636 778.11 C 681.265 783.485 667.783 778.658 662.408 767.287 L 630.53 699.848 C 625.155 688.477 629.982 674.995 641.353 669.62 L 1269.33 372.785 C 1280.7 367.405 1294.18 372.235 1299.55 383.605 L 1331.43 451.045 C 1336.81 462.415 1331.98 475.895 1320.61 481.27 L 692.636 778.11 Z M 324.292 680.444 C 314.274 685.179 302.398 680.927 297.663 670.91 L 285.452 645.078 C 280.717 635.061 284.97 623.184 294.987 618.449 L 532.632 506.115 C 542.649 501.38 554.525 505.632 559.26 515.649 L 571.471 541.481 C 576.206 551.498 571.954 563.375 561.937 568.11 L 324.292 680.444 Z" id="rect17215" transform="matrix(-1, 0, 0, -1, 0.000147, -0.000034)"/>
</svg>